<svg xmlns="http://www.w3.org/2000/svg" xmlns:xlink="http://www.w3.org/1999/xlink" fill="none" version="1.1" width="558.240234375" height="391.2002258300781" viewBox="0 0 558.240234375 391.2002258300781"><g><g><path d="M60.8977,294.099C156.34,365.451,249.866,346.872,251.026,350.937C252.187,355.002,209.024,374.596,222.774,387.016C236.524,399.435,367.877,386.664,433.563,315.21C499.249,243.756,558.24,140.306,558.24,140.306C558.24,140.306,452.312,0,447.208,0C442.103,0,15.8397,6.37781,15.8397,6.37781C15.8397,6.37781,10.7344,326.531,10.7344,326.531C10.7344,326.531,-34.5483,222.746,60.8977,294.099Z" fill="#248514" fill-opacity="1"/></g><g><g><g><path d="M224.79499145507813,216.338134765625L224.79499145507813,196.318134765625L228.5469914550781,196.318134765625L237.81499145507811,202.814134765625L237.95499145507813,202.814134765625L247.22299145507813,196.318134765625L250.9749914550781,196.318134765625L250.9749914550781,216.338134765625L246.49499145507812,216.338134765625L246.49499145507812,201.918134765625L240.13899145507813,206.174134765625L240.13899145507813,216.338134765625L235.65899145507814,216.338134765625L235.65899145507814,206.174134765625L229.27499145507812,201.918134765625L229.27499145507812,216.338134765625L224.79499145507813,216.338134765625ZM261.8669914550781,216.478134765625Q258.1149914550781,216.478134765625,256.01499145507813,214.616134765625Q253.9149914550781,212.754134765625,253.9149914550781,209.142134765625Q253.9149914550781,205.502134765625,256.01499145507813,203.640134765625Q258.1149914550781,201.778134765625,261.8669914550781,201.778134765625L267.0469914550781,201.778134765625Q270.7989914550781,201.778134765625,272.89899145507815,203.640134765625Q274.9989914550781,205.502134765625,274.9989914550781,209.142134765625Q274.9989914550781,212.754134765625,272.89899145507815,214.616134765625Q270.7989914550781,216.478134765625,267.0469914550781,216.478134765625L261.8669914550781,216.478134765625ZM261.8669914550781,213.25813476562502L267.0469914550781,213.25813476562502Q268.8669914550781,213.25813476562502,269.8329914550781,212.250134765625Q270.7989914550781,211.242134765625,270.7989914550781,209.142134765625Q270.7989914550781,207.014134765625,269.8329914550781,206.006134765625Q268.8669914550781,204.998134765625,267.0469914550781,204.998134765625L261.8669914550781,204.998134765625Q260.0469914550781,204.998134765625,259.0809914550781,206.006134765625Q258.1149914550781,207.014134765625,258.1149914550781,209.142134765625Q258.1149914550781,211.242134765625,259.0809914550781,212.250134765625Q260.0469914550781,213.25813476562502,261.8669914550781,213.25813476562502ZM284.91099145507815,216.478134765625Q281.15899145507814,216.478134765625,279.0589914550781,214.616134765625Q276.95899145507815,212.754134765625,276.95899145507815,209.142134765625Q276.95899145507815,205.502134765625,279.0589914550781,203.640134765625Q281.15899145507814,201.778134765625,284.91099145507815,201.778134765625L294.29099145507814,201.778134765625L294.29099145507814,204.998134765625L284.91099145507815,204.998134765625Q283.0909914550781,204.998134765625,282.12499145507815,206.006134765625Q281.15899145507814,207.014134765625,281.15899145507814,209.142134765625Q281.15899145507814,211.242134765625,282.12499145507815,212.250134765625Q283.0909914550781,213.25813476562502,284.91099145507815,213.25813476562502L294.5709914550781,213.25813476562502L294.5709914550781,216.478134765625L284.91099145507815,216.478134765625ZM300.50699145507815,216.338134765625Q298.2389914550781,216.338134765625,297.0349914550781,215.190134765625Q295.8309914550781,214.042134765625,295.8309914550781,211.914134765625Q295.8309914550781,209.814134765625,297.0349914550781,208.666134765625Q298.2389914550781,207.518134765625,300.50699145507815,207.518134765625L311.2589914550781,207.518134765625L311.2589914550781,206.846134765625Q311.2589914550781,205.138134765625,309.57899145507815,205.138134765625L297.70699145507814,205.138134765625L297.70699145507814,201.918134765625L310.6429914550781,201.918134765625Q313.1909914550781,201.918134765625,314.25499145507814,203.080134765625Q315.3189914550781,204.242134765625,315.3189914550781,206.342134765625L315.3189914550781,216.338134765625L300.50699145507815,216.338134765625ZM301.2349914550781,213.118134765625L311.2589914550781,213.118134765625L311.2589914550781,210.738134765625L301.2349914550781,210.738134765625Q300.7029914550781,210.738134765625,300.40899145507814,211.060134765625Q300.1149914550781,211.382134765625,300.1149914550781,211.914134765625Q300.1149914550781,212.446134765625,300.40899145507814,212.782134765625Q300.7029914550781,213.118134765625,301.2349914550781,213.118134765625ZM318.3989914550781,216.338134765625L318.3989914550781,201.918134765625L337.07499145507813,201.918134765625Q339.53899145507813,201.918134765625,340.6869914550781,203.136134765625Q341.8349914550781,204.354134765625,341.8349914550781,206.342134765625L341.8349914550781,216.338134765625L337.7749914550781,216.338134765625L337.7749914550781,206.846134765625Q337.7749914550781,205.138134765625,336.03899145507813,205.138134765625L332.14699145507814,205.138134765625L332.14699145507814,216.338134765625L328.08699145507813,216.338134765625L328.08699145507813,205.138134765625L322.45899145507815,205.138134765625L322.45899145507815,216.338134765625L318.3989914550781,216.338134765625ZM344.7749914550781,222.638134765625L344.7749914550781,201.918134765625L355.13499145507814,201.918134765625Q358.88699145507815,201.918134765625,360.9869914550781,203.766134765625Q363.08699145507813,205.614134765625,363.08699145507813,209.114134765625Q363.08699145507813,212.642134765625,360.9869914550781,214.490134765625Q358.88699145507815,216.338134765625,355.13499145507814,216.338134765625L348.8349914550781,216.338134765625L348.8349914550781,222.638134765625L344.7749914550781,222.638134765625ZM355.13499145507814,205.138134765625L348.8349914550781,205.138134765625L348.8349914550781,213.118134765625L355.13499145507814,213.118134765625Q356.95499145507813,213.118134765625,357.92099145507814,212.124134765625Q358.88699145507815,211.130134765625,358.88699145507815,209.114134765625Q358.88699145507815,207.126134765625,357.92099145507814,206.132134765625Q356.95499145507813,205.138134765625,355.13499145507814,205.138134765625Z" fill="#FFFFFF" fill-opacity="1"/></g><g><g><path d="M177.95071176757813,225.3913890625C174.33251176757813,225.3913890625,170.79551176757812,224.39708906250002,167.78711176757812,222.5341890625C164.77861176757813,220.6711890625,162.43371176757813,218.0233890625,161.04901176757812,214.92538906250002C159.6643117675781,211.8274890625,159.30181176757813,208.4184890625,160.0076117675781,205.1295890625C160.71331176757812,201.8407890625,162.4554117675781,198.8196890625,165.01371176757812,196.4484890625C167.57211176757812,194.0771890625,170.83161176757812,192.4621890625,174.38031176757812,191.8077890625C177.92891176757811,191.1532890625,181.60731176757812,191.4887890625,184.95021176757814,192.7717890625C188.29311176757813,194.0546890625,191.1505117675781,196.2274890625,193.16101176757812,199.0153890625C195.17151176757812,201.8033890625,196.24481176757814,205.0812890625,196.24531176757813,208.4344890625C196.2456117675781,210.6611890625,195.77261176757813,212.86618906249998,194.85331176757813,214.9234890625C193.93411176757812,216.9807890625,192.58661176757812,218.8500890625,190.88771176757814,220.4246890625C189.18891176757813,221.9992890625,187.1720117675781,223.2483890625,184.95231176757812,224.1005890625C182.73251176757813,224.95278906250002,180.3534117675781,225.3913890625,177.95071176757813,225.3913890625ZM177.95071176757813,179.5087890625C171.77751176757812,179.50878906249994,165.74291176757814,181.2052990625,160.61001176757813,184.3838090625C155.47720176757812,187.5623190625,151.47664176757812,192.0800890625,149.11425176757814,197.3656890625C146.75185456757814,202.65138906250002,146.13371876757813,208.4675890625,147.33805676757814,214.0788890625C148.54239176757812,219.6900890625,151.51510176757813,224.8442890625,155.88024176757813,228.8897890625C160.24541176757813,232.9352890625,165.80691176757813,235.6903890625,171.86151176757812,236.8064890625C177.91611176757812,237.9225890625,184.19191176757812,237.3497890625,189.89521176757813,235.1603890625C195.59851176757812,232.9709890625,200.47331176757814,229.2633890625,203.90291176757813,224.5063890625C207.33261176757813,219.7493890625,209.16321176757813,214.1566890625,209.16321176757813,208.4354890625C209.16321176757813,200.7636890625,205.87471176757813,193.4060890625,200.0212117675781,187.9812290625C194.16781176757812,182.5564190625,186.22881176757812,179.50878906250006,177.95071176757813,179.5087890625C177.95071176757813,179.5087890625,177.95071176757813,179.5087890625,177.95071176757813,179.5087890625Z" fill-rule="evenodd" fill="#FFFFFF" fill-opacity="1"/></g><g><path d="M196.24543520507814,208.4344890625C196.24543520507814,212.9313890625,194.31793520507813,217.2439890625,190.88693520507812,220.4237890625C187.45593520507813,223.6034890625,182.80253520507813,225.3898890625,177.95033520507812,225.3898890625C173.09813520507814,225.3898890625,168.44473520507813,223.6034890625,165.01373520507812,220.4237890625C161.58273520507814,217.2439890625,159.65523520507813,212.9313890625,159.65523520507813,208.4344890625C159.65523520507813,208.2806890625,159.67543520507812,208.1330890625,159.67993520507812,207.9802890625C159.67993520507812,207.9802890625,159.65523520507813,207.9802890625,159.65523520507813,207.9802890625C159.65523520507813,207.9802890625,159.65523520507813,185.4947490625,159.65523520507813,185.4947490625C159.65523520507813,183.9071690625,158.97473520507813,182.3846190625,157.7634352050781,181.2620290625C156.55216520507813,180.1394460625,154.90929520507814,179.5087890625,153.19627520507814,179.5087890625C151.4832652050781,179.5087890625,149.84039520507812,180.1394460625,148.62911520507814,181.2620290625C147.41782420507812,182.3846190625,146.73733534947513,183.9071690625,146.73733520507812,185.4947490625C146.73733520507812,185.4947490625,146.73733520507812,208.4344890625,146.73733520507812,208.4344890625C146.73733520507818,216.1064890625,150.02583520507812,223.4642890625,155.87940520507811,228.8891890625C161.73293520507812,234.3140890625,169.67213520507812,237.3617890625,177.95033520507812,237.3617890625C186.22853520507812,237.3617890625,194.1676352050781,234.3140890625,200.02123520507814,228.8891890625C205.8748352050781,223.4642890625,209.1633352050781,216.1064890625,209.1633352050781,208.4344890625C209.1633352050781,208.4344890625,196.24543520507814,208.4344890625,196.24543520507814,208.4344890625Z" fill-rule="evenodd" fill="#FFFFFF" fill-opacity="1"/></g><g><path d="M199.78278217773436,212.27509765625C199.80968217773437,211.88849765625,199.82768217773437,211.50079765625,199.82768217773437,211.10789765625C199.82768217773437,208.74259765625,199.32488217773437,206.40059765625,198.34808217773437,204.21539765625C197.37118217773437,202.03029765625,195.93948217773436,200.04487765625,194.1345821777344,198.37263765625C192.32968217773438,196.70039765625,190.18698217773436,195.37406765625,187.82888217773439,194.46939765625C185.47078217773438,193.56472865625,182.94358217773438,193.09941579425,180.39138217773439,193.100098406201C179.96968217773437,193.100098406201,179.55248217773436,193.11676955625,179.13758217773437,193.14171535625C179.02538217773437,193.14795185625,178.91318217773437,193.15627775625,178.80098217773437,193.16563245625C178.46008217773436,193.19127115625,178.12368217773437,193.22589265625,177.79168217773437,193.26954765625C177.7142821777344,193.27890265625,177.63578217773437,193.28615465625,177.5583821777344,193.29758865625C177.14938217773437,193.35302365625,176.74448217773437,193.42027065625,176.34378217773437,193.49926565625C176.34378217773437,193.49926565625,176.13398217773437,193.54392765625,176.13398217773437,193.54392765625C175.79608217773438,193.61322165625,175.45968217773438,193.69153765625,175.12468217773437,193.77884765625C175.07308217773436,193.79236065625,175.01918217773436,193.80175065625,174.96868217773437,193.81526265625C173.27518217773437,194.27020765625,171.65668217773438,194.93780765625,170.15845217773438,195.79948765625C170.15845217773438,195.79948765625,170.15845217773438,195.79948765625,170.15845217773438,195.79948765625C170.11807217773438,195.82235765625,170.08109217773438,195.84830765625,170.04632217773437,195.87117765625C169.78239217773438,196.02500765625,169.52255217773438,196.18511765625,169.26684217773436,196.35142765625C169.18946217773438,196.40131765625,169.11210217773439,196.45533765625,169.03472217773438,196.50418765625C168.78499217773438,196.67118765625,168.54009217773438,196.84441765625,168.30008217773437,197.02388765625C168.2462421777344,197.06338765625,168.18792217773438,197.10078765625,168.1396921777344,197.14131765625C167.84510217773436,197.36375765625,167.55763217773438,197.59316765625,167.27725217773437,197.82945765624999C167.27725217773437,197.82945765624999,167.20435217773436,197.89384765625,167.20435217773436,197.89384765625C166.95761217773438,198.10519765625,166.7168721777344,198.32283765625,166.4820921777344,198.54665765625C166.41480217773437,198.61109765625,166.34749217773438,198.67656765625,166.28132217773438,198.74204765625C166.0831821777344,198.93607765625,165.8898721777344,199.13388765625,165.70145217773438,199.33553765625C165.64089217773437,199.39997765625,165.58038217773438,199.46335765625,165.52094217773438,199.52883765625C165.04165217773436,200.05671765625,164.59528217773436,200.60955765625,164.18405217773437,201.18463765625C164.13022217773437,201.26051765625,164.07863217773436,201.33638765625,164.02592217773437,201.41225765625C163.87638217773437,201.63053765625,163.73022217773436,201.85229765625,163.58741217773436,202.07749765625C163.53246217773437,202.16376765625,163.47521217773436,202.25003765625002,163.4258621777344,202.33734765625C163.27184217773438,202.59165765625,163.1249121777344,202.84977765625,162.98509217773437,203.11169765625C162.95929217773437,203.16059765625,162.93127217773437,203.20739765625,162.90548217773437,203.25619765625C162.7424821777344,203.56739765625,162.58958217773437,203.88329765625,162.44677217773437,204.20419765625C162.41088217773438,204.28209765625,162.38057217773436,204.36109765625,162.34580217773438,204.43909765625C162.24038217773438,204.68509765625,162.14025217773437,204.93349765625,162.04529217773438,205.18429765625C162.00604217773437,205.28819765625,161.96787217773436,205.39219765625,161.93310217773438,205.49609765625002C161.84487417773437,205.74629765625,161.76224517773437,205.99879765625,161.68523317773437,206.25389765625C161.65943717773436,206.34009765625,161.63141717773436,206.42539765625,161.60562117773438,206.51269765625C161.50916917773438,206.85009765625,161.4232061777344,207.19169765625,161.34768917773437,207.53749765625C161.33423117773438,207.59989765625,161.32411517773437,207.66429765625,161.3106561777344,207.72669765625C161.25233617773438,208.01149765625001,161.20109217773438,208.29839765625,161.15697917773437,208.58729765625C161.14015617773438,208.70059765625,161.12450517773436,208.81389765625,161.11104617773438,208.92719765625C161.07740017773438,209.18219765625,161.05011187773437,209.43929765625,161.02917647773438,209.69849765625C161.02020417773437,209.80759765625,161.00893517773437,209.91669765625,161.00220587773438,210.02689765625001C160.97865357773438,210.38759765625,160.96298217773438,210.75449765625,160.96298217773438,211.11619765625C160.96298217773438,211.46129765625,160.97640507773437,211.80529765625,160.99659277773438,212.14519765625C161.00668657773437,212.31359765625,161.02244237773436,212.47889765625,161.03814387773437,212.64519765625C161.05384547773437,212.81149765625,161.06503617773438,212.94659765625,161.08298117773438,213.09629765625C161.11064517773437,213.33669765625,161.14355817773438,213.57509765625,161.18169017773437,213.81139765625C161.18169017773437,213.84359765625,161.19175817773439,213.87579765625,161.19736617773438,213.90809765625C161.60449617773438,216.34839765625,162.55007217773436,218.68479765625,163.97499217773438,220.77129765625C165.39991217773436,222.85789765625,167.2736421777344,224.64979765625,169.47918217773437,226.03529765625C171.68478217773438,227.42079765625,174.1747821777344,228.37009765625,176.79378217773439,228.82389765624998C179.4128821777344,229.27769765624998,182.10478217773436,229.22619765625,184.70148217773436,228.67279765625C184.90108217773437,228.63129765625,185.10188217773438,228.58969765625,185.30038217773438,228.54289765625C185.41258217773438,228.51689765625,185.51458217773438,228.48579765624999,185.62228217773438,228.45769765625C185.88838217773437,228.38839765625,186.15238217773438,228.31499765625,186.41408217773437,228.23739765625C186.46008217773436,228.22279765625,186.50718217773436,228.21239765625,186.55318217773439,228.19889765624998C186.85148217773437,228.16559765625,187.16548217773436,228.13749765625,187.50078217773438,228.11779765625C189.43888217773437,228.00029765624998,194.70218217773436,231.62479765625,197.02488217773438,231.25469765625002C197.60698217773438,228.70189765625,194.49028217773437,224.45599765625,196.01558217773436,221.99459765625C196.88618217773438,220.84099765625,197.64178217773437,219.61639765625,198.27318217773438,218.33599765625002C198.4581821777344,217.90459765625,198.61978217773438,217.45659765625,198.76888217773438,216.99719765625C198.78578217773438,216.95249765625,198.79698217773438,216.90779765625,198.81268217773436,216.86309765625C198.92858217773437,216.54429765625,199.03508217773438,216.22179765625,199.13228217773437,215.89539765625C199.14688217773437,215.84659765625,199.16368217773436,215.79879765625,199.17718217773438,215.74889765625C199.28558217773437,215.37049765625,199.38088217773438,214.98699765625,199.46318217773438,214.59819765625C199.46318217773438,214.58259765625002,199.47218217773437,214.56809765625,199.47438217773438,214.55249765625C199.52228217773438,214.38269765625,199.5704821777344,214.21229765625,199.61908217773438,214.04109765625C199.62468217773437,213.91949765625,199.62908217773438,213.79689765625,199.63358217773438,213.67519765625C199.64038217773438,213.63569765625,199.64148217773436,213.59409765625,199.64818217773438,213.55459765625C199.69608217773438,213.22899765625,199.73348217773437,212.90049765625,199.76038217773439,212.56929765625C199.76708217773438,212.46739765625,199.77608217773437,212.37179765625,199.78278217773436,212.27509765625Z" fill-rule="evenodd" fill="#E6E7ED" fill-opacity="1"/></g><g><path d="M196.2039627090454,209.53100009765626C196.22976270904542,209.16730009765624,196.2464627090454,208.80350009765624,196.2464627090454,208.43250009765626C196.2464627090454,203.93570009765625,194.3190627090454,199.62318009765625,190.88816270904542,196.44353009765626C187.4572627090454,193.26388009765625,182.8040627090454,191.47760009765636,177.9519627090454,191.47760009765625C177.5549627090454,191.47760009765625,177.1669627090454,191.49317799765626,176.7721627090454,191.51604499765625C176.6667627090454,191.52228149765625,176.56126270904542,191.53059269765626,176.4569627090454,191.53786859765626C176.1362627090454,191.56212139765626,175.81806270904542,191.59365409765624,175.5025627090454,191.63245809765624C175.4296627090454,191.64181309765624,175.35566270904542,191.64911409765625,175.2782627090454,191.65846909765625C174.8931627090454,191.71043909765626,174.5118627090454,191.77382609765624,174.1342627090454,191.84866309765624C174.1342627090454,191.84866309765624,173.9368627090454,191.89129509765624,173.9368627090454,191.89129509765624C173.6183627090454,191.95712509765625,173.3031627090454,192.03087209765624,172.9913627090454,192.11263909765626C172.94206270904542,192.12511209765626,172.8927627090454,192.13448809765626,172.84446270904542,192.14696109765626C171.2498627090454,192.57615009765624,169.7260627090454,193.20563009765624,168.3157027090454,194.01788009765625C168.3157027090454,194.01788009765625,168.3157027090454,194.01788009765625,168.3157027090454,194.01788009765625C168.2786927090454,194.03971009765624,168.24283270904542,194.06362009765624,168.2035827090454,194.08545009765626C167.9553427090454,194.23097009765624,167.71086270904541,194.38168009765624,167.47010270904542,194.53759009765625C167.47010270904542,194.53759009765625,167.2513927090454,194.68103009765625,167.2513927090454,194.68103009765625C167.0166227090454,194.83832009765624,166.7859527090454,195.00049009765624,166.5594027090454,195.16749009765624C166.5089327090454,195.20491009765624,166.4573327090454,195.24027009765626,166.4079827090454,195.27769009765626C166.1305827090454,195.48557009765625,165.8599227090454,195.70172009765625,165.59599270904542,195.92624009765626C165.59599270904542,195.92624009765626,165.52757270904542,195.98651009765626,165.52757270904542,195.98651009765626C165.29503270904542,196.18607009765626,165.06850270904542,196.39122009765626,164.8479327090454,196.60188009765625C164.7840027090454,196.66216009765625,164.7211927090454,196.72349009765625,164.6583827090454,196.78586009765624C164.4722027090454,196.96810009765625,164.2901427090454,197.15446009765625,164.11219270904542,197.34502009765626C164.0561127090454,197.40531009765624,164.0000327090454,197.46564009765626,163.94171270904542,197.52697009765626C163.49052270904542,198.02401009765626,163.0704127090454,198.54457009765625,162.68337270904541,199.08608009765624C162.6329027090454,199.15676009765625,162.5846527090454,199.22951009765626,162.5353027090454,199.30019009765624C162.3924927090454,199.50807009765626,162.25494270904542,199.71593009765624,162.12260270904542,199.92381009765626C162.07101270904542,200.00489009765624,162.0205327090454,200.08702009765625,161.97118270904542,200.16914009765625C161.8268727090454,200.40820009765625,161.6885627090454,200.65074009765624,161.5562127090454,200.89674009765625C161.5315427090454,200.94247009765624,161.5046027090454,200.98715009765624,161.4810527090454,201.03288009765626C161.3315127090454,201.32599009765624,161.1876127090454,201.62320009765625,161.0492827090454,201.92470009765626C161.01676270904542,201.99850009765626,160.9864627090454,202.07230009765624,160.95506270904542,202.14610009765624C160.8556127090454,202.37750009765625,160.7610427090454,202.61140009765626,160.6713227090454,202.84770009765626C160.63468470904542,202.94470009765624,160.5972927090454,203.04240009765624,160.55916070904541,203.14080009765624C160.4761667090454,203.37640009765624,160.3983977090454,203.61410009765626,160.3258717090454,203.85380009765626C160.3011977090454,203.93490009765625,160.27430470904542,204.01600009765625,160.2518737090454,204.09710009765624C160.1614027090454,204.41510009765625,160.08026670904542,204.73700009765625,160.0084877090454,205.06270009765626C159.99615070904542,205.12190009765624,159.9860587090454,205.18220009765625,159.97484370904542,205.24150009765626C159.91951370904542,205.50960009765626,159.8712907090454,205.77980009765625,159.8301677090454,206.05220009765625C159.8133437090454,206.15610009765624,159.79988370904542,206.26000009765625,159.7864257090454,206.37230009765625C159.75502270904542,206.61340009765624,159.7292268090454,206.85460009765626,159.70903910904542,207.09990009765625C159.7000668090454,207.20380009765626,159.68996150904542,207.30780009765624,159.6832322090454,207.41170009765625C159.6619230090454,207.75160009765625,159.6473627090454,208.09250009765626,159.6473627090454,208.43660009765625C159.6473627090454,208.76190009765625,159.65968240904542,209.08410009765626,159.67874850904542,209.40530009765627C159.6877208090454,209.56330009765625,159.7034186090454,209.71720009765625,159.71687700904542,209.87520009765626C159.7303355090454,210.03310009765624,159.74266610904542,210.15890009765624,159.7594887090454,210.30030009765625C159.7852847090454,210.52690009765624,159.81668870904542,210.75130009765624,159.8514557090454,210.97380009765624C159.8514557090454,211.00390009765624,159.8615587090454,211.03510009765625,159.86716670904542,211.06520009765626C160.25036270904542,213.36300009765625,161.1405627090454,215.56290009765624,162.4821527090454,217.52760009765626C163.8237327090454,219.49230009765625,165.58792270904542,221.17950009765624,167.66457270904542,222.48410009765624C169.7412627090454,223.78860009765626,172.0857627090454,224.68240009765626,174.55176270904542,225.10970009765626C177.0178627090454,225.53690009765626,179.55246270904541,225.48850009765624,181.9973627090454,224.96730009765625C182.1858627090454,224.92780009765625,182.3742627090454,224.88940009765625,182.5581627090454,224.84470009765624C182.6590627090454,224.81970009765627,182.7599627090454,224.79170009765625,182.8609627090454,224.76460009765626C183.1121627090454,224.70020009765625,183.36006270904542,224.63160009765625,183.6067627090454,224.55680009765626C183.6505627090454,224.54330009765624,183.6942627090454,224.53390009765624,183.7368627090454,224.52040009765625C184.0172627090454,224.48920009765624,184.31216270904542,224.46220009765625,184.6340627090454,224.44350009765625C186.4588627090454,224.33330009765626,191.4148627090454,227.74460009765625,193.6063627090454,227.39750009765623C194.1548627090454,224.99440009765624,191.2197627090454,220.99580009765626,192.65206270904542,218.67890009765625C193.4716627090454,217.59280009765627,194.1830627090454,216.43980009765625,194.7772627090454,215.23430009765625C194.9522627090454,214.82790009765625,195.10476270904542,214.40280009765624,195.2449627090454,213.97350009765626C195.26066270904542,213.93300009765625,195.2719627090454,213.88930009765625,195.2864627090454,213.84770009765626C195.39866270904542,213.54730009765626,195.49626270904542,213.24380009765625,195.5881627090454,212.93620009765624C195.6016627090454,212.89040009765625,195.6173627090454,212.84470009765624,195.62966270904542,212.79900009765626C195.7320627090454,212.44280009765626,195.8217627090454,212.08180009765624,195.8988627090454,211.71590009765626C195.8988627090454,211.70140009765626,195.9066627090454,211.68680009765626,195.9100627090454,211.67330009765624C195.95486270904541,211.51320009765624,196.0001627090454,211.35280009765626,196.04576270904542,211.19200009765626C196.05256270904542,211.07670009765624,196.0547627090454,210.96230009765625,196.06036270904542,210.84800009765624C196.06036270904542,210.81060009765625,196.06706270904542,210.77210009765625,196.0726627090454,210.73470009765626C196.11756270904542,210.42840009765627,196.1548627090454,210.11940009765624,196.1848627090454,209.80760009765623C196.1892627090454,209.71510009765626,196.19716270904541,209.62560009765625,196.2039627090454,209.53100009765626Z" fill-rule="evenodd" fill="#248514" fill-opacity="1"/></g><g><path d="M193.60881229858398,227.39330578125C191.417312298584,227.74254578125,186.448912298584,224.32188578125,184.61961229858397,224.43310578125C184.303412298584,224.45181578125,184.007312298584,224.47881578125,183.72241229858398,224.50999578125C181.16251229858398,225.34469578125,178.430212298584,225.62404578125,175.73550229858398,225.32653578125C173.04084229858398,225.02903578125,170.45568229858398,224.16261578125,168.17901229858398,222.79393178125C174.01774229858398,224.50999578125,178.57681229858397,225.24177578125,183.438712298584,223.41761578125C185.703112298584,222.56945678125,186.775212298584,221.68804278125,188.84221229858397,223.14945178125C190.78921229858398,224.52458578125,191.664012298584,226.01920578125,193.60881229858398,227.39330578125Z" fill-rule="evenodd" fill="#E6E7E8" fill-opacity="1"/></g></g></g></g></g></svg>